<svg width="14" height="14" viewBox="0 0 14 14" fill="none" xmlns="http://www.w3.org/2000/svg">
<g id="cuida:alert-outline">
<g id="Group">
<g id="Group_2">
<path id="Vector" fill-rule="evenodd" clip-rule="evenodd" d="M12.8333 7.00002C12.8333 10.2218 10.2218 12.8334 7 12.8334C3.77825 12.8334 1.16667 10.2218 1.16667 7.00002C1.16667 3.77827 3.77825 1.16669 7 1.16669C10.2218 1.16669 12.8333 3.77827 12.8333 7.00002ZM7 11.6667C8.23768 11.6667 9.42466 11.175 10.2998 10.2999C11.175 9.42468 11.6667 8.2377 11.6667 7.00002C11.6667 5.76234 11.175 4.57536 10.2998 3.70019C9.42466 2.82502 8.23768 2.33335 7 2.33335C5.76232 2.33335 4.57534 2.82502 3.70017 3.70019C2.825 4.57536 2.33333 5.76234 2.33333 7.00002C2.33333 8.2377 2.825 9.42468 3.70017 10.2999C4.57534 11.175 5.76232 11.6667 7 11.6667Z" fill="black"/>
<path id="Vector_2" fill-rule="evenodd" clip-rule="evenodd" d="M7 8.16671C6.84529 8.16671 6.69692 8.10525 6.58752 7.99585C6.47813 7.88646 6.41667 7.73808 6.41667 7.58337V4.66671C6.41667 4.512 6.47813 4.36362 6.58752 4.25423C6.69692 4.14483 6.84529 4.08337 7 4.08337C7.15471 4.08337 7.30308 4.14483 7.41248 4.25423C7.52188 4.36362 7.58333 4.512 7.58333 4.66671V7.58337C7.58333 7.73808 7.52188 7.88646 7.41248 7.99585C7.30308 8.10525 7.15471 8.16671 7 8.16671Z" fill="black"/>
<path id="Vector_3" d="M6.41667 9.33333C6.41667 9.17862 6.47813 9.03025 6.58752 8.92085C6.69692 8.81146 6.84529 8.75 7 8.75C7.15471 8.75 7.30308 8.81146 7.41248 8.92085C7.52188 9.03025 7.58333 9.17862 7.58333 9.33333C7.58333 9.48804 7.52188 9.63642 7.41248 9.74581C7.30308 9.85521 7.15471 9.91667 7 9.91667C6.84529 9.91667 6.69692 9.85521 6.58752 9.74581C6.47813 9.63642 6.41667 9.48804 6.41667 9.33333Z" fill="black"/>
</g>
</g>
</g>
</svg>
