<svg width="16" height="16" viewBox="0 0 16 16" fill="none" xmlns="http://www.w3.org/2000/svg">
<g id="game-icons:pay-money">
<path id="Vector" d="M9.34063 0.759705C8.875 0.76908 8.54063 0.859705 8.31875 1.0222L5.27813 2.65033L3.5875 4.95002C3.23125 5.50002 3.48438 6.56252 4.59688 5.88127L5.81563 4.27502C7.3625 2.94095 10.5188 3.55314 9.02188 6.23127C8.2875 7.78127 8.63125 8.53752 9.57813 8.85627L10.0094 7.40627C10.7562 5.72502 12.15 5.42189 12.0938 4.06564L15.4438 4.30627L15.4125 0.803455L9.34063 0.759705ZM7.65 3.99064C7.10625 3.98127 6.57188 4.20627 6.18438 4.53127L4.9625 6.13752C5.29688 6.40314 5.63438 6.25939 5.96875 5.93752C6.3625 6.13752 6.66875 5.82814 6.91875 5.20939C7.02188 4.78752 7.175 4.49064 7.65 3.99064ZM5.1625 6.99064C5.15 6.99064 5.13438 6.99064 5.12188 6.99377C5.01875 7.01564 4.89688 7.12502 4.81563 7.37502C4.73125 7.62502 4.7125 7.98127 4.7875 8.36252C4.8625 8.74064 5.01875 9.06252 5.19375 9.26252C5.3625 9.45939 5.51875 9.51564 5.62188 9.49377C5.72813 9.47502 5.84688 9.36252 5.92813 9.11564C6.0125 8.86564 6.03438 8.50627 5.95938 8.12814C5.88125 7.74689 5.725 7.42502 5.55313 7.22814C5.40313 7.05314 5.26563 6.99064 5.1625 6.99064ZM7.74375 10.3281C7.49688 10.3313 7.1875 10.4094 6.88438 10.5563C6.5375 10.7281 6.26563 10.9656 6.11875 11.1844C5.97188 11.4 5.95938 11.5625 6.00625 11.6594C6.05313 11.7531 6.19063 11.8438 6.45313 11.8563C6.71563 11.8719 7.06875 11.8 7.41563 11.6281C7.7625 11.4563 8.03438 11.2219 8.18125 11.0031C8.32812 10.7875 8.34063 10.6219 8.29375 10.5281C8.24688 10.4313 8.10938 10.3438 7.84688 10.3313C7.8125 10.3281 7.78125 10.3281 7.74375 10.3281ZM4.69375 13.3156C4.54688 13.3188 4.4125 13.3406 4.29375 13.375C4.02813 13.4531 3.875 13.5938 3.825 13.7594C3.77188 13.9281 3.825 14.1281 4.00313 14.3438C4.18438 14.5563 4.4875 14.7594 4.8625 14.8719C5.23438 14.9844 5.59688 14.9813 5.86563 14.9C6.13438 14.8219 6.2875 14.6813 6.3375 14.5156C6.3875 14.3469 6.3375 14.1469 6.15625 13.9313C5.97813 13.7188 5.675 13.5156 5.3 13.4031C5.0875 13.3406 4.88125 13.3125 4.69375 13.3156Z" fill="black"/>
</g>
</svg>
