<svg width="16" height="16" viewBox="0 0 16 16" fill="none" xmlns="http://www.w3.org/2000/svg">
<g id="game-icons:receive-money" clip-path="url(#clip0_126_778)">
<path id="Vector" d="M8.0625 0.684082C8.04688 0.684082 8.025 0.684082 8.00625 0.687832C7.8625 0.714395 7.69063 0.847207 7.57812 1.15064C7.45937 1.45377 7.43437 1.88596 7.5375 2.34877C7.64375 2.80596 7.8625 3.20002 8.10625 3.44064C8.34375 3.68127 8.55937 3.74689 8.70312 3.72189C8.85312 3.70002 9.01875 3.56252 9.13125 3.26252C9.25 2.96127 9.28125 2.52314 9.175 2.06408C9.06563 1.60158 8.85 1.21127 8.60625 0.972207C8.4 0.759707 8.20937 0.684082 8.0625 0.684082ZM11.6687 4.73127C11.325 4.74064 10.8906 4.83127 10.4688 5.00939C9.98125 5.22189 9.60625 5.50627 9.4 5.77502C9.19375 6.03439 9.175 6.23127 9.24063 6.34689C9.30938 6.46252 9.5 6.57189 9.86563 6.58752C10.2313 6.60939 10.725 6.51877 11.2094 6.31252C11.6938 6.10314 12.075 5.81564 12.2812 5.55314C12.4875 5.29377 12.5031 5.09064 12.4375 4.97502C12.3719 4.85627 12.1781 4.75314 11.8125 4.74064C11.7625 4.73127 11.7188 4.73127 11.6687 4.73127ZM7.40938 7.63439C7.20312 7.63752 7.01562 7.66252 6.84688 7.70627C6.47813 7.80002 6.26562 7.96877 6.19688 8.17189C6.11875 8.37502 6.19688 8.61877 6.44063 8.88127C6.69688 9.13752 7.11875 9.38439 7.64375 9.52189C8.16563 9.65939 8.66875 9.65627 9.04375 9.55627C9.42188 9.45939 9.63437 9.28752 9.70312 9.08752C9.775 8.88439 9.70312 8.64377 9.45 8.37814C9.20312 8.12189 8.78125 7.87502 8.25625 7.74064C7.95938 7.66252 7.66875 7.63127 7.40938 7.63439ZM12.4312 9.45002L10.5 10.3656C10.6313 10.3719 10.9594 10.3813 10.9594 10.3813L11.1656 10.6531L12.875 9.76252L12.4312 9.45002ZM10.7281 9.45314L8.93437 10.3031C9.10625 10.3125 9.5125 10.3188 9.675 10.3281L11.2312 9.59064L10.7281 9.45314ZM13.6219 9.79064L11.4187 10.9594L11.8719 11.5438L14.2 10.15L13.6219 9.79064ZM4.90938 10.075C4.81475 10.0748 4.7204 10.0853 4.62813 10.1063C2.39375 10.6219 1.075 10.6656 0.684375 10.6656H0.5625V14.025C0.5625 14.025 0.925 13.9719 1.52813 13.9688C2.69375 13.9688 4.74687 14.1688 6.74687 15.3375C6.85312 15.4031 7.08125 15.4281 7.36562 15.4281C8.125 15.4281 9.27812 15.2469 9.54375 15.1469C12.2188 14.1438 15.4375 11.3906 15.4375 11.3906L14.4219 10.5031C14.4219 10.5031 11.9281 12.0938 11.6125 12.2469C8.76562 13.6438 6.45937 12.7719 6.45937 12.7719C6.45937 12.7719 10.2063 12.8656 11.4094 11.9188L10.7031 10.8563C10.7031 10.8563 8.11562 10.7844 7.19375 10.6625C6.7125 10.6 5.67188 10.075 4.90938 10.075Z" fill="black"/>
</g>
<defs>
<clipPath id="clip0_126_778">
<rect width="16" height="16" fill="white"/>
</clipPath>
</defs>
</svg>
