<svg width="19" height="19" viewBox="0 0 19 19" fill="none" xmlns="http://www.w3.org/2000/svg">
<g id="Property 1=Default">
<path id="Vector" d="M9.57916 14.6854L9.49999 14.7646L9.41291 14.6854C5.65249 11.2733 3.16666 9.01708 3.16666 6.72917C3.16666 5.14583 4.35416 3.95833 5.93749 3.95833C7.15666 3.95833 8.34416 4.75 8.76374 5.82667H10.2362C10.6558 4.75 11.8433 3.95833 13.0625 3.95833C14.6458 3.95833 15.8333 5.14583 15.8333 6.72917C15.8333 9.01708 13.3475 11.2733 9.57916 14.6854ZM13.0625 2.375C11.685 2.375 10.3629 3.01625 9.49999 4.02167C8.63708 3.01625 7.31499 2.375 5.93749 2.375C3.49916 2.375 1.58333 4.28292 1.58333 6.72917C1.58333 9.71375 4.27499 12.16 8.35208 15.8571L9.49999 16.9021L10.6479 15.8571C14.725 12.16 17.4167 9.71375 17.4167 6.72917C17.4167 4.28292 15.5008 2.375 13.0625 2.375Z" fill="black"/>
</g>
</svg>
