<svg width="12" height="12" viewBox="0 0 12 12" fill="none" xmlns="http://www.w3.org/2000/svg">
<g id="subway:round-arrow-1" clip-path="url(#clip0_131_884)">
<path id="Vector" d="M10.4789 2.02031C9.38203 0.782812 7.78594 0 6 0C2.68594 0 0 2.68594 0 6H1.5C1.5 3.51328 3.51328 1.5 6 1.5C7.37109 1.5 8.5875 2.12109 9.41016 3.08906L7.99922 4.5H12V0.499219L10.4789 2.02031ZM6 10.5C4.62891 10.5 3.4125 9.87891 2.58984 8.91094L4.00078 7.5H0V11.5008L1.52109 9.97969C2.61797 11.2172 4.21641 12 6 12C9.31406 12 12 9.31406 12 6H10.5C10.5 8.48672 8.48672 10.5 6 10.5Z" fill="black"/>
</g>
<defs>
<clipPath id="clip0_131_884">
<rect width="12" height="12" fill="white"/>
</clipPath>
</defs>
</svg>
